<svg xmlns="http://www.w3.org/2000/svg" width="10" height="11" viewBox="0 0 10 11" fill="none">
    <path fill-rule="evenodd" clip-rule="evenodd" d="M1.75 1.8717C1.75 1.51917 2.03578 1.2334 2.3883 1.2334H6.33916C6.50845 1.2334 6.6708 1.30065 6.79051 1.42035L8.06305 2.69289C8.18275 2.8126 8.25 2.97495 8.25 3.14424V9.12843C8.25 9.48096 7.96422 9.76673 7.6117 9.76673H2.3883C2.03578 9.76673 1.75 9.48096 1.75 9.12843V1.8717ZM2.25 1.7334V9.26673H7.75V3.2334H6.72872C6.46433 3.2334 6.25 3.01907 6.25 2.75468V1.7334H2.25ZM3.92878 4.92484C3.88723 4.96639 3.88723 5.03374 3.92878 5.07529L4.13189 5.2784C4.17343 5.31994 4.17343 5.3873 4.13189 5.42885L3.92878 5.63195C3.88724 5.6735 3.81988 5.6735 3.77833 5.63195L3.57522 5.42884C3.53368 5.3873 3.46632 5.3873 3.42478 5.42884L3.22167 5.63195C3.18012 5.6735 3.11276 5.6735 3.07122 5.63195L2.86811 5.42885C2.82657 5.3873 2.82657 5.31994 2.86811 5.2784L3.07122 5.07529C3.11277 5.03374 3.11277 4.96639 3.07122 4.92484L2.86811 4.72173C2.82657 4.68019 2.82657 4.61283 2.86811 4.57128L3.07122 4.36818C3.11276 4.32663 3.18012 4.32663 3.22167 4.36818L3.42478 4.57129C3.46632 4.61283 3.53368 4.61283 3.57522 4.57129L3.77833 4.36818C3.81988 4.32663 3.88724 4.32663 3.92878 4.36818L4.13189 4.57128C4.17343 4.61283 4.17343 4.68019 4.13189 4.72173L3.92878 4.92484ZM6.92878 4.92484C6.88723 4.96639 6.88723 5.03374 6.92878 5.07529L7.13189 5.2784C7.17343 5.31994 7.17343 5.3873 7.13189 5.42885L6.92878 5.63195C6.88724 5.6735 6.81988 5.6735 6.77833 5.63195L6.57522 5.42884C6.53368 5.3873 6.46632 5.3873 6.42478 5.42884L6.22167 5.63195C6.18012 5.6735 6.11276 5.6735 6.07122 5.63195L5.86811 5.42885C5.82657 5.3873 5.82657 5.31994 5.86811 5.2784L6.07122 5.07529C6.11277 5.03374 6.11277 4.96639 6.07122 4.92484L5.86811 4.72173C5.82657 4.68019 5.82657 4.61283 5.86811 4.57128L6.07122 4.36818C6.11276 4.32663 6.18012 4.32663 6.22167 4.36818L6.42478 4.57129C6.46632 4.61283 6.53368 4.61283 6.57522 4.57129L6.77833 4.36818C6.81988 4.32663 6.88724 4.32663 6.92878 4.36818L7.13189 4.57128C7.17343 4.61283 7.17343 4.68019 7.13189 4.72173L6.92878 4.92484ZM3.25 8.00006C3.25 7.03356 4.0335 6.25006 5 6.25006C5.96651 6.25006 6.75 7.03356 6.75 8.00006C6.75 8.13814 6.63807 8.25006 6.5 8.25006C6.36193 8.25006 6.25 8.13814 6.25 8.00006C6.25 7.3097 5.69036 6.75006 5 6.75006C4.30964 6.75006 3.75 7.3097 3.75 8.00006C3.75 8.13814 3.63807 8.25006 3.5 8.25006C3.36193 8.25006 3.25 8.13814 3.25 8.00006Z" fill="white"/>
</svg>